<svg xmlns="http://www.w3.org/2000/svg" viewBox="0 0 35.93 36.59"><defs><style>.cls-1{fill:#fff;stroke:#000;stroke-linecap:round;stroke-width:1.5px;}</style></defs><g id="Layer_2" data-name="Layer 2"><g id="Layer_1-2" data-name="Layer 1"><path d="M12.34,3.58l-.84-.94h0Zm11.25,0,.83-.94Zm-.36-.32-.83.93Zm-10.53,0,.83.93h0Zm-8,30.48.73-1ZM2.85,31.89l1-.73Zm30.23,0-1-.73Zm-1.85,1.85-.74-1Zm2.19-21.82V20.3h2.51V11.92ZM19.64,34.08H16.29v2.51h3.35ZM2.51,20.3V11.92H0V20.3ZM22.4,4.19l.36.32,1.66-1.87-.36-.32Zm-9.23.32.36-.32L11.86,2.32l-.36.32Zm-5.26,2a7.91,7.91,0,0,0,5.26-2L11.5,2.64A5.39,5.39,0,0,1,7.91,4Zm14.85-2a7.91,7.91,0,0,0,5.26,2V4a5.42,5.42,0,0,1-3.6-1.37Zm1.3-2.19a9.19,9.19,0,0,0-12.2,0l1.67,1.87a6.67,6.67,0,0,1,8.87,0ZM16.29,34.08c-3.16,0-5.43,0-7.19-.19a7.31,7.31,0,0,1-3.67-1.16L4,34.76a9.73,9.73,0,0,0,4.87,1.62c1.93.21,4.36.21,7.46.21ZM0,20.3c0,3.1,0,5.53.21,7.46a9.7,9.7,0,0,0,1.63,4.87l2-1.47A7.4,7.4,0,0,1,2.7,27.49c-.19-1.76-.19-4-.19-7.19ZM5.43,32.73a7.3,7.3,0,0,1-1.57-1.57l-2,1.47A9.73,9.73,0,0,0,4,34.76Zm28-12.43c0,3.16,0,5.43-.19,7.19a7.4,7.4,0,0,1-1.16,3.67l2,1.47a9.7,9.7,0,0,0,1.63-4.87c.21-1.93.21-4.36.21-7.46ZM19.64,36.59c3.1,0,5.53,0,7.45-.21A9.73,9.73,0,0,0,32,34.76l-1.48-2a7.24,7.24,0,0,1-3.67,1.16c-1.75.19-4,.19-7.18.19Zm12.43-5.43a7.13,7.13,0,0,1-1.58,1.57l1.48,2a9.73,9.73,0,0,0,2.12-2.13Zm3.86-19.24A7.91,7.91,0,0,0,28,4v2.5a5.41,5.41,0,0,1,5.4,5.41Zm-33.42,0a5.41,5.41,0,0,1,5.4-5.41V4A7.91,7.91,0,0,0,0,11.92Z"/><path class="cls-1" d="M10,19.3H26m-8,8v-16"/></g></g></svg>