<svg width="28" height="31" viewBox="0 0 28 31" fill="none" xmlns="http://www.w3.org/2000/svg">
<g filter="url(#filter0_d_115_7335)">
<path d="M21.2178 7.93844L21.1005 8.67921H21.1005L21.2178 7.93844ZM17.0616 3.78217L16.3208 3.8995V3.8995L17.0616 3.78217ZM7.06107 21.0451L7.50191 20.4383L7.06107 21.0451ZM5.95491 19.9389L6.56168 19.4981L5.95491 19.9389ZM22.0451 19.9389L21.4383 19.4981L22.0451 19.9389ZM20.9389 21.0451L20.4981 20.4383L20.9389 21.0451ZM20.9389 2.95491L21.3798 2.34815L20.9389 2.95491ZM22.0451 4.06107L22.6518 3.62023L22.0451 4.06107ZM7.06107 2.95491L7.50191 3.56168L7.06107 2.95491ZM5.95491 4.06107L6.56168 4.50191L5.95491 4.06107ZM17 2.02893L17.0257 1.27937L17 2.02893ZM22.9711 8L23.7206 7.97432L22.9711 8ZM10 15.25C9.58579 15.25 9.25 15.5858 9.25 16C9.25 16.4142 9.58579 16.75 10 16.75V15.25ZM13 16.75C13.4142 16.75 13.75 16.4142 13.75 16C13.75 15.5858 13.4142 15.25 13 15.25V16.75ZM10 11.25C9.58579 11.25 9.25 11.5858 9.25 12C9.25 12.4142 9.58579 12.75 10 12.75V11.25ZM18 12.75C18.4142 12.75 18.75 12.4142 18.75 12C18.75 11.5858 18.4142 11.25 18 11.25V12.75ZM10 7.25C9.58579 7.25 9.25 7.58579 9.25 8C9.25 8.41421 9.58579 8.75 10 8.75V7.25ZM13 8.75C13.4142 8.75 13.75 8.41421 13.75 8C13.75 7.58579 13.4142 7.25 13 7.25V8.75ZM21.3352 7.19768C19.5166 6.90965 18.0904 5.48339 17.8023 3.66485L16.3208 3.8995C16.7105 6.35988 18.6401 8.28952 21.1005 8.67921L21.3352 7.19768ZM22.25 11V13H23.75V11H22.25ZM5.75 13V11H4.25V13H5.75ZM14 21.25C12.1084 21.25 10.75 21.249 9.69804 21.135C8.66013 21.0225 8.00992 20.8074 7.50191 20.4383L6.62023 21.6518C7.42656 22.2377 8.37094 22.5 9.53648 22.6263C10.688 22.751 12.1418 22.75 14 22.75V21.25ZM4.25 13C4.25 14.8582 4.24897 16.312 4.37373 17.4635C4.50001 18.6291 4.76232 19.5734 5.34815 20.3798L6.56168 19.4981C6.19259 18.9901 5.97745 18.3399 5.865 17.302C5.75103 16.25 5.75 14.8916 5.75 13H4.25ZM7.50191 20.4383C7.14111 20.1762 6.82382 19.8589 6.56168 19.4981L5.34815 20.3798C5.70281 20.8679 6.13209 21.2972 6.62023 21.6518L7.50191 20.4383ZM22.25 13C22.25 14.8916 22.249 16.25 22.135 17.302C22.0225 18.3399 21.8074 18.9901 21.4383 19.4981L22.6518 20.3798C23.2377 19.5734 23.5 18.6291 23.6263 17.4635C23.751 16.312 23.75 14.8582 23.75 13H22.25ZM14 22.75C15.8582 22.75 17.312 22.751 18.4635 22.6263C19.6291 22.5 20.5734 22.2377 21.3798 21.6518L20.4981 20.4383C19.9901 20.8074 19.3399 21.0225 18.302 21.135C17.25 21.249 15.8916 21.25 14 21.25V22.75ZM21.4383 19.4981C21.1762 19.8589 20.8589 20.1762 20.4981 20.4383L21.3798 21.6518C21.8679 21.2972 22.2972 20.8679 22.6518 20.3798L21.4383 19.4981ZM20.4981 3.56168C20.8589 3.82382 21.1762 4.14111 21.4383 4.50191L22.6518 3.62023C22.2972 3.13209 21.8679 2.70281 21.3798 2.34815L20.4981 3.56168ZM14 1.25C12.1418 1.25 10.688 1.24897 9.53648 1.37373C8.37094 1.50001 7.42656 1.76232 6.62023 2.34815L7.50191 3.56168C8.00992 3.19259 8.66013 2.97745 9.69804 2.865C10.75 2.75103 12.1084 2.75 14 2.75V1.25ZM5.75 11C5.75 9.10843 5.75103 7.74999 5.865 6.69804C5.97745 5.66013 6.19259 5.00992 6.56168 4.50191L5.34815 3.62023C4.76232 4.42656 4.50001 5.37094 4.37373 6.53648C4.24897 7.68798 4.25 9.14184 4.25 11H5.75ZM6.62023 2.34815C6.13209 2.70281 5.70281 3.13209 5.34815 3.62023L6.56168 4.50191C6.82382 4.14111 7.14111 3.82382 7.50191 3.56168L6.62023 2.34815ZM14 2.75C15.1731 2.75 16.1456 2.75009 16.9743 2.77849L17.0257 1.27937C16.1658 1.24991 15.1648 1.25 14 1.25V2.75ZM16.9743 2.77849C18.8292 2.84204 19.7925 3.04907 20.4981 3.56168L21.3798 2.34815C20.2761 1.5463 18.8991 1.34355 17.0257 1.27937L16.9743 2.77849ZM16.25 2.02893C16.25 2.91121 16.2484 3.44215 16.3208 3.8995L17.8023 3.66485C17.7529 3.35298 17.75 2.96617 17.75 2.02892L16.25 2.02893ZM23.75 11C23.75 9.83522 23.7501 8.83424 23.7206 7.97432L22.2215 8.02568C22.2499 8.85445 22.25 9.82692 22.25 11H23.75ZM23.7206 7.97432C23.6564 6.10087 23.4537 4.7239 22.6518 3.62023L21.4383 4.50191C21.9509 5.20746 22.158 6.17075 22.2215 8.02568L23.7206 7.97432ZM22.9711 7.25C22.0338 7.24999 21.647 7.24707 21.3352 7.19768L21.1005 8.67921C21.5579 8.75165 22.0888 8.74999 22.9711 8.75L22.9711 7.25ZM10 16.75H13V15.25H10V16.75ZM10 12.75H18V11.25H10V12.75ZM10 8.75H13V7.25H10V8.75Z" fill="#2D264B"/>
</g>
<defs>
<filter id="filter0_d_115_7335" x="-2" y="0" width="32" height="32" filterUnits="userSpaceOnUse" color-interpolation-filters="sRGB">
<feFlood flood-opacity="0" result="BackgroundImageFix"/>
<feColorMatrix in="SourceAlpha" type="matrix" values="0 0 0 0 0 0 0 0 0 0 0 0 0 0 0 0 0 0 127 0" result="hardAlpha"/>
<feOffset dy="4"/>
<feGaussianBlur stdDeviation="2"/>
<feComposite in2="hardAlpha" operator="out"/>
<feColorMatrix type="matrix" values="0 0 0 0 0 0 0 0 0 0 0 0 0 0 0 0 0 0 0.25 0"/>
<feBlend mode="normal" in2="BackgroundImageFix" result="effect1_dropShadow_115_7335"/>
<feBlend mode="normal" in="SourceGraphic" in2="effect1_dropShadow_115_7335" result="shape"/>
</filter>
</defs>
</svg>
