<svg xmlns="http://www.w3.org/2000/svg" viewBox="0 0 16.34 16.34"><defs><style>.cls-1{fill:#fff;}</style></defs><g id="Layer_2" data-name="Layer 2"><g id="Layer_1-2" data-name="Layer 1"><path class="cls-1" d="M4.26,15.28a1.07,1.07,0,0,0,2.14,0ZM6.4,1.07a1.07,1.07,0,0,0-2.14,0ZM10,15.28a1.07,1.07,0,0,0,2.13,0ZM12.08,1.07a1.07,1.07,0,1,0-2.13,0Zm3.2,5.33a1.07,1.07,0,0,0,0-2.14ZM1.07,4.26a1.07,1.07,0,0,0,0,2.14Zm14.21,7.82a1.07,1.07,0,0,0,0-2.13ZM1.07,10a1.07,1.07,0,1,0,0,2.13Zm14.21,0H11v2.13h4.27Zm-3.2,5.33V11H10v4.27ZM11,10H5.33v2.13H11ZM5.33,10H1.07v2.13H5.33ZM6.4,15.28V11H4.26v4.27ZM6.4,11V5.33H4.26V11Zm0-5.68V1.07H4.26V5.33ZM5.33,4.26H1.07V6.4H5.33Zm10,0H11V6.4h4.27ZM11,4.26H5.33V6.4H11ZM12.08,11V5.33H10V11Zm0-5.68V1.07H10V5.33Z"/></g></g></svg>