<svg xmlns="http://www.w3.org/2000/svg" xmlns:xlink="http://www.w3.org/1999/xlink" viewBox="0 0 185.24 125.9"><defs><style>.cls-1{fill:url(#linear-gradient);}.cls-2{fill:url(#linear-gradient-2);}.cls-3{fill:url(#linear-gradient-3);}</style><linearGradient id="linear-gradient" x1="-6.79" y1="125.85" x2="189.49" y2="23.52" gradientUnits="userSpaceOnUse"><stop offset="0" stop-color="#233d82"/><stop offset="1" stop-color="#0b5faa"/></linearGradient><linearGradient id="linear-gradient-2" x1="125.08" y1="47.29" x2="190.86" y2="10.97" xlink:href="#linear-gradient"/><linearGradient id="linear-gradient-3" x1="114.37" y1="121.09" x2="160.67" y2="85.03" gradientTransform="translate(95.57 -63.98) rotate(39.06)" gradientUnits="userSpaceOnUse"><stop offset="0" stop-color="#db8944"/><stop offset="1" stop-color="#ff9540"/></linearGradient></defs><g id="Layer_2" data-name="Layer 2"><g id="Layer_1-2" data-name="Layer 1"><path class="cls-1" d="M176.47,81.09A35.24,35.24,0,0,1,176,86a21.64,21.64,0,0,1-.86,3.2A19.82,19.82,0,0,1,174,92.1a23.43,23.43,0,0,1-3,4.53,14.85,14.85,0,0,1-3.51,3.15c-.52.31-1,.77-1.47,1.12a5.25,5.25,0,0,1-1.05.55,29.74,29.74,0,0,0-2.77,1.21,21.68,21.68,0,0,1-3.6,1.12,17.82,17.82,0,0,1-4.5.86c-1,.06-1.88.15-2.82.24-.46.05-.92.09-1.37.15h0c-20.13.54-26-.38-27.54-.79v0l-.17,0-.26-.1-.11,0h0c-.55-.18-1.12-.35-1.69-.55-.75-.26-1.5-.55-2.26-.83-.48-.17-1-.29-1.43-.5-1.13-.52-2.25-1.09-3.36-1.64a1.45,1.45,0,0,0-2,.37,4,4,0,0,1-.84.52c-.72.39-1.41.84-2.16,1.19-.95.43-2,.72-2.91,1.16-1.64.77-3.43.78-5.16,1.17a32.18,32.18,0,0,1-6.79.27q-35.82,0-71.66,0a16.16,16.16,0,0,1-3.38-.58,15.09,15.09,0,0,1-2-.52,20.71,20.71,0,0,1-2.48-1,35.58,35.58,0,0,1-3.39-1.93,13.7,13.7,0,0,1-1.53-1.35c-.18-.15-.41-.27-.62-.44a10.83,10.83,0,0,1-2.51-2.63c-.37-.57-1-1-1.38-1.56a27.08,27.08,0,0,1-1.59-2.5c-.54-.92-1-1.88-1.46-2.83A3.19,3.19,0,0,1,.92,89c-.18-1-.29-2.1-.57-3.11-.65-2.49-.16-5-.32-7.53a2.69,2.69,0,0,1,0-.46H87.88l.09-.13c-.34-.36-.69-.69-1-1.06-.2-.21-.31-.5-.51-.73-.9-1-1.82-2.07-2.72-3.11-.49-.57-.92-1.18-1.41-1.72-.81-.9-1.67-1.74-2.48-2.63-.21-.23-.33-.52-.55-.76-.86-1-1.74-2-2.6-3-.52-.6-1-1.22-1.49-1.82-.39-.44-.81-.89-1.22-1.33s-1-1-1.47-1.58c-.7-.81-1.39-1.64-2.08-2.46C70,57,69.57,56.4,69.1,55.88c-.81-.88-1.67-1.73-2.47-2.63-.59-.67-1.13-1.39-1.71-2.08s-1.18-1.35-1.76-2c-.81-.91-1.59-1.86-2.41-2.78s-1.57-1.69-2.31-2.56-1.16-1.53-1.77-2.26c-.37-.45-.84-.83-1.26-1.26-.21-.23-.33-.53-.55-.78-.46-.49-1-1-1.41-1.45-.69-.81-1.36-1.64-2-2.45-.35-.42-.71-.81-1.06-1.23-.24-.27-.47-.56-.72-.85-.44-.51-.89-1-1.38-1.55,1.09-.46,2.22-.92,3.34-1.41S53.87,29.47,55,29s2.42-1,3.62-1.52c.9-.41,1.79-.88,2.69-1.31.51-.23,1-.41,1.53-.63,1.16-.52,2.31-1.07,3.48-1.59s2.49-1,3.72-1.56c.76-.35,1.5-.81,2.26-1.17s1.35-.52,2-.78c.93-.38,1.86-.75,2.78-1.16,1.39-.63,2.77-1.29,4.17-1.93,1.19-.55,2.37-1.12,3.58-1.65s2.37-.95,3.53-1.47c.91-.4,1.78-.89,2.68-1.3.54-.25,1.12-.43,1.67-.66.9-.38,1.82-.75,2.71-1.15,1.48-.66,3-1.31,4.41-2s2.81-1.3,4.24-1.93c.9-.41,1.83-.75,2.72-1.16s1.75-.89,2.62-1.3c.49-.23,1-.38,1.51-.61,1.17-.51,2.32-1,3.48-1.56s2.43-1,3.66-1.57c.66-.3,1.3-.62,2-1,.5,1.16,1,2.22,1.45,3.29.31.7.6,1.41.92,2.1s.72,1.5,1.06,2.25.73,1.77,1.13,2.65c.5,1.1,1.06,2.18,1.54,3.29s1,2.43,1.57,3.64c.41.92.93,1.81,1.37,2.71.23.47.36,1,.57,1.45.44,1,.95,1.92,1.39,2.9.11.2.28.44-.15.62-.92.4-1.81.86-2.72,1.27l-3,1.38c-.48.22-1,.4-1.43.61l-3.64,1.63c-1.19.52-2.42,1-3.61,1.51-1,.43-1.89,1-2.85,1.41-.44.21-.93.35-1.39.54-.94.38-1.87.75-2.77,1.16s-1.75.86-2.62,1.27c-.51.24-1,.43-1.55.67-1,.46-2,1-3,1.43-.43.2-.88.33-1.33.5-1,.4-1.94.78-2.89,1.2s-1.7.73-2.54,1.14-1.62.83-2.41,1.24c.54.69,1.06,1.4,1.63,2,.41.51.88,1,1.31,1.49.68.76,1.34,1.53,2,2.3.44.5.92,1,1.36,1.5s.93,1.07,1.41,1.6,1,1.17,1.51,1.75c.63.73,1.23,1.48,1.84,2.22.49.56,1,1.11,1.49,1.68.79.93,1.57,1.91,2.4,2.85s1.64,1.7,2.4,2.58,1.26,1.67,1.93,2.47c.34.41.75.76,1.12,1.16.12.12.23.28.35.4.93,1.07,1.88,2.14,2.8,3.21s1.87,2.21,2.85,3.26a23.06,23.06,0,0,0,1.93,1.75c.58.5,1.13,1,1.74,1.47a13.37,13.37,0,0,0,3.31,1.67c2.86,1,5.8.52,8.69.61,2.53.08,5,0,7.56,0a6.28,6.28,0,0,0,3-1,5.59,5.59,0,0,0,2.1-2.57,18.33,18.33,0,0,0,1.3-4.41,29.55,29.55,0,0,0,.23-5.31c.07-1.8,0-3.59,0-5.39v-.71h27a3.37,3.37,0,0,1,0,.44C176.5,66.28,176.52,73.69,176.47,81.09Z"/><path class="cls-2" d="M136.79,38.91v-.66c0-7.24,0-14.48,0-21.73,0-.59.16-.76.76-.76h47.7V38.91Z"/><rect class="cls-3" x="113.59" y="92.64" width="48.74" height="20.15" transform="translate(-33.89 109.9) rotate(-39.06)"/></g></g></svg>