<svg xmlns="http://www.w3.org/2000/svg" xmlns:xlink="http://www.w3.org/1999/xlink" viewBox="0 0 551 259.4"><defs><style>.cls-1{fill:url(#linear-gradient);}.cls-2{fill:url(#linear-gradient-2);}.cls-3{fill:url(#linear-gradient-3);}.cls-4{font-size:96.03px;}.cls-4,.cls-5{fill:#8d8d94;font-family:Montserrat-Bold, Montserrat;font-weight:700;}.cls-5{font-size:56.65px;}</style><linearGradient id="linear-gradient" x1="155.35" y1="259.3" x2="559.75" y2="48.46" gradientUnits="userSpaceOnUse"><stop offset="0" stop-color="#233d82"/><stop offset="1" stop-color="#0b5faa"/></linearGradient><linearGradient id="linear-gradient-2" x1="427.04" y1="97.43" x2="562.58" y2="22.59" xlink:href="#linear-gradient"/><linearGradient id="linear-gradient-3" x1="404.98" y1="249.5" x2="500.38" y2="175.19" gradientTransform="translate(234.76 -238.52) rotate(39.06)" gradientUnits="userSpaceOnUse"><stop offset="0" stop-color="#db8944"/><stop offset="1" stop-color="#ff9540"/></linearGradient></defs><g id="Layer_2" data-name="Layer 2"><g id="Layer_1-2" data-name="Layer 1"><path class="cls-1" d="M532.93,167.09a73.18,73.18,0,0,1-1,10.06,44,44,0,0,1-1.77,6.59,39.06,39.06,0,0,1-2.33,6,48,48,0,0,1-6.12,9.34,30.6,30.6,0,0,1-7.22,6.49c-1.07.63-2,1.58-3,2.3a11,11,0,0,1-2.17,1.14,60.45,60.45,0,0,0-5.71,2.49c-2.37,1.29-5,1.45-7.41,2.3a35.59,35.59,0,0,1-9.28,1.77c-2,.13-3.87.32-5.8.5-.94.1-1.89.19-2.84.32h0c-41.47,1.1-53.49-.79-56.73-1.64l0,0-.34-.1-.54-.19-.22-.09h0c-1.14-.38-2.3-.73-3.47-1.14-1.55-.53-3.09-1.13-4.67-1.7-1-.35-2-.6-2.93-1-2.33-1.07-4.64-2.24-6.94-3.37a3,3,0,0,0-4,.75,7.77,7.77,0,0,1-1.73,1.08c-1.48.82-2.9,1.73-4.45,2.46-1.95.88-4,1.48-6,2.39-3.37,1.58-7.06,1.61-10.63,2.4-4.66,1-9.33.54-14,.57q-73.8.09-147.63,0c-2.39,0-4.66-.73-7-1.2a31.37,31.37,0,0,1-4.19-1.07,41.9,41.9,0,0,1-5.11-2.05,76.32,76.32,0,0,1-7-4,28.14,28.14,0,0,1-3.15-2.77c-.38-.32-.86-.57-1.3-.92a22.24,22.24,0,0,1-5.17-5.42c-.76-1.17-2-2-2.84-3.22a53.9,53.9,0,0,1-3.28-5.14c-1.1-1.89-2-3.88-3-5.83a6.06,6.06,0,0,1-.6-1.89c-.38-2.15-.6-4.32-1.17-6.41-1.36-5.14-.35-10.34-.66-15.51a5.44,5.44,0,0,1,0-.95h181l.19-.28c-.69-.73-1.42-1.42-2.08-2.18-.41-.44-.63-1-1-1.51-1.86-2.15-3.75-4.26-5.61-6.4-1-1.17-1.9-2.43-2.91-3.54-1.67-1.86-3.43-3.59-5.11-5.42-.44-.47-.69-1.07-1.13-1.58-1.77-2.05-3.6-4.1-5.36-6.15-1.07-1.23-2-2.52-3.06-3.75-.82-.92-1.67-1.83-2.52-2.74-1-1.08-2.05-2.12-3-3.25-1.45-1.67-2.87-3.38-4.29-5.08-.92-1.14-1.77-2.33-2.74-3.41-1.68-1.83-3.44-3.56-5.08-5.42-1.23-1.39-2.34-2.87-3.53-4.29s-2.43-2.78-3.63-4.19c-1.67-1.9-3.28-3.85-4.95-5.74s-3.25-3.47-4.76-5.27c-1.3-1.48-2.4-3.16-3.66-4.67-.76-.91-1.74-1.7-2.59-2.58-.44-.48-.69-1.11-1.13-1.61-.95-1-2-2-2.91-3-1.41-1.67-2.8-3.37-4.19-5.05l-2.18-2.52c-.5-.57-1-1.17-1.48-1.76-.91-1.05-1.83-2.05-2.84-3.19,2.24-.95,4.58-1.89,6.88-2.9s4.67-2.24,7-3.28,5-2.05,7.44-3.12c1.86-.85,3.69-1.83,5.55-2.72,1.05-.47,2.12-.85,3.16-1.29,2.4-1.07,4.76-2.21,7.16-3.28s5.14-2.08,7.66-3.22c1.58-.72,3.09-1.67,4.67-2.39,1.35-.63,2.77-1.07,4.13-1.61,1.92-.79,3.85-1.55,5.74-2.4,2.87-1.29,5.71-2.65,8.58-4,2.46-1.14,4.89-2.3,7.38-3.41s4.89-1.95,7.28-3c1.86-.82,3.66-1.83,5.52-2.69,1.11-.5,2.3-.88,3.44-1.35,1.86-.79,3.75-1.55,5.58-2.37q4.59-2,9.08-4.1c2.94-1.32,5.81-2.68,8.74-4,1.86-.85,3.78-1.55,5.61-2.4s3.6-1.83,5.4-2.68c1-.47,2.08-.79,3.12-1.26,2.4-1,4.76-2.14,7.16-3.22s5-2.11,7.54-3.21c1.35-.63,2.68-1.3,4.1-2,1,2.4,2,4.57,3,6.78.63,1.45,1.23,2.9,1.89,4.32s1.49,3.09,2.18,4.64c.79,1.79,1.51,3.66,2.33,5.45,1,2.27,2.18,4.51,3.19,6.78,1.1,2.5,2.08,5,3.22,7.51.85,1.89,1.92,3.72,2.83,5.58.48,1,.73,2,1.17,3,.92,2,2,3.94,2.87,6,.22.41.57.91-.31,1.29-1.9.82-3.73,1.77-5.62,2.62s-4.07,1.89-6.12,2.84c-1,.44-1.95.82-2.93,1.26-2.52,1.1-5,2.24-7.51,3.34s-5,2-7.44,3.12c-2,.89-3.88,2-5.86,2.91-.92.44-1.93.72-2.87,1.1-1.93.79-3.85,1.54-5.71,2.4s-3.6,1.76-5.4,2.61c-1,.51-2.14.89-3.18,1.39-2.05.95-4.1,2-6.18,2.93-.89.41-1.83.7-2.75,1-2,.82-4,1.6-6,2.46-1.76.75-3.5,1.51-5.23,2.36s-3.34,1.7-4.95,2.55c1.1,1.42,2.17,2.87,3.34,4.23.85,1,1.83,2,2.71,3.06,1.39,1.58,2.75,3.15,4.13,4.73.92,1,1.9,2,2.81,3.09s1.92,2.21,2.9,3.31,2.11,2.4,3.12,3.6c1.3,1.51,2.53,3.06,3.79,4.57,1,1.17,2.05,2.3,3.06,3.47,1.64,1.92,3.25,3.94,4.95,5.87s3.37,3.5,4.95,5.33c1.39,1.64,2.59,3.43,4,5.07.7.85,1.55,1.58,2.31,2.4.25.25.47.57.72.82,1.93,2.21,3.88,4.42,5.77,6.62s3.85,4.54,5.87,6.72a50.51,50.51,0,0,0,4,3.6,45.7,45.7,0,0,0,3.6,3,27.08,27.08,0,0,0,6.81,3.44c5.9,2,12,1.07,17.91,1.26,5.21.16,10.38,0,15.58,0,2.31,0,4.23-1.1,6.15-2.14,2.15-1.17,3.22-3.22,4.32-5.3,1.49-2.9,2-6,2.68-9.08.82-3.66.35-7.32.48-10.95s0-7.41,0-11.1v-1.48h55.63c0,.31.06.63.06.91C533,136.56,533,151.82,532.93,167.09Z"/><path class="cls-2" d="M451.17,80.18V78.81q0-22.38,0-44.76c0-1.23.34-1.58,1.57-1.58q48.53,0,97.06,0H551V80.18Z"/><rect class="cls-3" x="403.37" y="190.88" width="100.42" height="41.51" transform="translate(-31.98 333.14) rotate(-39.06)"/><text class="cls-4" transform="translate(0 140.05)">TECH</text><text class="cls-5" transform="translate(2.5 203.15)">BLOG</text></g></g></svg>