<svg width="28" height="30" viewBox="0 0 28 30" fill="none" xmlns="http://www.w3.org/2000/svg">
<g filter="url(#filter0_d_115_7332)">
<path d="M14.75 8C14.75 7.58579 14.4142 7.25 14 7.25C13.5858 7.25 13.25 7.58579 13.25 8H14.75ZM13.25 16C13.25 16.4142 13.5858 16.75 14 16.75C14.4142 16.75 14.75 16.4142 14.75 16H13.25ZM17.75 9C17.75 8.58579 17.4142 8.25 17 8.25C16.5858 8.25 16.25 8.58579 16.25 9H17.75ZM16.25 15C16.25 15.4142 16.5858 15.75 17 15.75C17.4142 15.75 17.75 15.4142 17.75 15H16.25ZM20.75 11C20.75 10.5858 20.4142 10.25 20 10.25C19.5858 10.25 19.25 10.5858 19.25 11H20.75ZM19.25 13C19.25 13.4142 19.5858 13.75 20 13.75C20.4142 13.75 20.75 13.4142 20.75 13H19.25ZM11.75 9C11.75 8.58579 11.4142 8.25 11 8.25C10.5858 8.25 10.25 8.58579 10.25 9H11.75ZM10.25 15C10.25 15.4142 10.5858 15.75 11 15.75C11.4142 15.75 11.75 15.4142 11.75 15H10.25ZM8.75 11C8.75 10.5858 8.41421 10.25 8 10.25C7.58579 10.25 7.25 10.5858 7.25 11H8.75ZM7.25 13C7.25 13.4142 7.58579 13.75 8 13.75C8.41421 13.75 8.75 13.4142 8.75 13H7.25ZM7.06107 20.0451L7.50191 19.4383L7.06107 20.0451ZM5.95491 18.9389L6.56168 18.4981L5.95491 18.9389ZM22.0451 18.9389L21.4383 18.4981L22.0451 18.9389ZM20.9389 20.0451L20.4981 19.4383L20.9389 20.0451ZM20.9389 3.95491L20.4981 4.56168L20.9389 3.95491ZM22.0451 5.06107L21.4383 5.50191L22.0451 5.06107ZM7.06107 3.95491L7.50191 4.56168L7.06107 3.95491ZM5.95491 5.06107L6.56168 5.50191L5.95491 5.06107ZM13.25 8V16H14.75V8H13.25ZM16.25 9V15H17.75V9H16.25ZM19.25 11V13H20.75V11H19.25ZM10.25 9L10.25 15H11.75L11.75 9H10.25ZM7.25 11L7.25 13H8.75L8.75 11H7.25ZM14 20.25C12.1084 20.25 10.75 20.249 9.69804 20.135C8.66013 20.0225 8.00992 19.8074 7.50191 19.4383L6.62023 20.6518C7.42656 21.2377 8.37094 21.5 9.53648 21.6263C10.688 21.751 12.1418 21.75 14 21.75V20.25ZM4.25 12C4.25 13.8582 4.24897 15.312 4.37373 16.4635C4.50001 17.6291 4.76232 18.5734 5.34815 19.3798L6.56168 18.4981C6.19259 17.9901 5.97745 17.3399 5.865 16.302C5.75103 15.25 5.75 13.8916 5.75 12H4.25ZM7.50191 19.4383C7.14111 19.1762 6.82382 18.8589 6.56168 18.4981L5.34815 19.3798C5.70281 19.8679 6.13209 20.2972 6.62023 20.6518L7.50191 19.4383ZM22.25 12C22.25 13.8916 22.249 15.25 22.135 16.302C22.0225 17.3399 21.8074 17.9901 21.4383 18.4981L22.6518 19.3798C23.2377 18.5734 23.5 17.6291 23.6263 16.4635C23.751 15.312 23.75 13.8582 23.75 12H22.25ZM14 21.75C15.8582 21.75 17.312 21.751 18.4635 21.6263C19.6291 21.5 20.5734 21.2377 21.3798 20.6518L20.4981 19.4383C19.9901 19.8074 19.3399 20.0225 18.302 20.135C17.25 20.249 15.8916 20.25 14 20.25V21.75ZM21.4383 18.4981C21.1762 18.8589 20.8589 19.1762 20.4981 19.4383L21.3798 20.6518C21.8679 20.2972 22.2972 19.8679 22.6518 19.3798L21.4383 18.4981ZM14 3.75C15.8916 3.75 17.25 3.75103 18.302 3.865C19.3399 3.97745 19.9901 4.19259 20.4981 4.56168L21.3798 3.34815C20.5734 2.76232 19.6291 2.50001 18.4635 2.37373C17.312 2.24897 15.8582 2.25 14 2.25V3.75ZM23.75 12C23.75 10.1418 23.751 8.68798 23.6263 7.53648C23.5 6.37094 23.2377 5.42656 22.6518 4.62023L21.4383 5.50191C21.8074 6.00992 22.0225 6.66013 22.135 7.69804C22.249 8.74999 22.25 10.1084 22.25 12H23.75ZM20.4981 4.56168C20.8589 4.82382 21.1762 5.14111 21.4383 5.50191L22.6518 4.62023C22.2972 4.13209 21.8679 3.70281 21.3798 3.34815L20.4981 4.56168ZM14 2.25C12.1418 2.25 10.688 2.24897 9.53648 2.37373C8.37094 2.50001 7.42656 2.76232 6.62023 3.34815L7.50191 4.56168C8.00992 4.19259 8.66013 3.97745 9.69804 3.865C10.75 3.75103 12.1084 3.75 14 3.75V2.25ZM5.75 12C5.75 10.1084 5.75103 8.74999 5.865 7.69804C5.97745 6.66013 6.19259 6.00992 6.56168 5.50191L5.34815 4.62023C4.76232 5.42656 4.50001 6.37094 4.37373 7.53648C4.24897 8.68798 4.25 10.1418 4.25 12H5.75ZM6.62023 3.34815C6.13209 3.70281 5.70281 4.13209 5.34815 4.62023L6.56168 5.50191C6.82382 5.14111 7.14111 4.82382 7.50191 4.56168L6.62023 3.34815Z" fill="#2D264B"/>
</g>
<defs>
<filter id="filter0_d_115_7332" x="-2" y="0" width="32" height="32" filterUnits="userSpaceOnUse" color-interpolation-filters="sRGB">
<feFlood flood-opacity="0" result="BackgroundImageFix"/>
<feColorMatrix in="SourceAlpha" type="matrix" values="0 0 0 0 0 0 0 0 0 0 0 0 0 0 0 0 0 0 127 0" result="hardAlpha"/>
<feOffset dy="4"/>
<feGaussianBlur stdDeviation="2"/>
<feComposite in2="hardAlpha" operator="out"/>
<feColorMatrix type="matrix" values="0 0 0 0 0 0 0 0 0 0 0 0 0 0 0 0 0 0 0.25 0"/>
<feBlend mode="normal" in2="BackgroundImageFix" result="effect1_dropShadow_115_7332"/>
<feBlend mode="normal" in="SourceGraphic" in2="effect1_dropShadow_115_7332" result="shape"/>
</filter>
</defs>
</svg>
